<svg width="320" height="544" viewBox="0 0 320 544" fill="none" xmlns="http://www.w3.org/2000/svg">
<path d="M-350 0H670V544H-350V0Z" fill="url(#paint0_linear_1089_10)"/>
<path d="M-349.848 0C-349.848 49.4062 -216.656 11.6659 -216.656 117.406C-216.656 223.147 -199.391 267.75 43.9219 267.75C184.955 267.75 221.201 318.539 255.697 366.876C287.016 410.761 316.892 452.625 422.438 452.625C526.918 452.625 560.754 403.75 593.632 356.259C613.962 326.893 633.926 298.056 670 281.633V0L-349.848 0Z" fill="url(#paint1_linear_1089_10)"/>
<path d="M-349.736 0H-350V248.625L-349.736 0Z" fill="url(#paint2_linear_1089_10)"/>
<path d="M575.829 362.767C601.154 330.606 626.806 298.028 670 280.622V281.633C633.926 298.056 613.962 326.893 593.632 356.259C560.754 403.75 526.918 452.625 422.438 452.625C505.074 452.625 540.125 408.111 575.829 362.767Z" fill="url(#paint3_linear_1089_10)"/>
<path d="M-216.656 117.406C-216.656 207.209 -199.391 251.812 43.9219 251.812C189.001 251.812 230.53 310.19 268.805 363.994C301.519 409.98 331.856 452.625 422.438 452.625C316.892 452.625 287.016 410.761 255.697 366.876C221.201 318.539 184.955 267.75 43.9219 267.75C-199.391 267.75 -216.656 223.147 -216.656 117.406Z" fill="url(#paint4_linear_1089_10)"/>
<path d="M-350 248.625L-349.738 2.40496C-348.034 20.5303 -326.818 26.0319 -301.808 32.5174C-263.649 42.4126 -216.656 54.5983 -216.656 117.406C-216.656 44.2486 -261.961 29.1164 -313.796 11.8031C-318.055 10.3805 -322.393 9.0817 -326.763 7.77329C-334.494 5.45867 -342.325 3.1139 -350 0V248.625Z" fill="url(#paint5_linear_1089_10)"/>
<defs>
<linearGradient id="paint0_linear_1089_10" x1="-350" y1="358.062" x2="670" y2="358.062" gradientUnits="userSpaceOnUse">
<stop stop-color="#F0F0F0"/>
<stop offset="1" stop-color="#D4D4D4"/>
</linearGradient>
<linearGradient id="paint1_linear_1089_10" x1="-224.625" y1="392.859" x2="302.28" y2="64.6679" gradientUnits="userSpaceOnUse">
<stop offset="0.182292" stop-color="#D3D3D3"/>
<stop offset="1" stop-color="#F0F0F0"/>
</linearGradient>
<linearGradient id="paint2_linear_1089_10" x1="-224.625" y1="392.859" x2="302.28" y2="64.6679" gradientUnits="userSpaceOnUse">
<stop offset="0.182292" stop-color="#D3D3D3"/>
<stop offset="1" stop-color="#F0F0F0"/>
</linearGradient>
<linearGradient id="paint3_linear_1089_10" x1="-224.625" y1="392.859" x2="302.28" y2="64.6679" gradientUnits="userSpaceOnUse">
<stop offset="0.182292" stop-color="#D1D1D1"/>
<stop offset="1" stop-color="#CFCFCF"/>
</linearGradient>
<linearGradient id="paint4_linear_1089_10" x1="-224.625" y1="392.859" x2="302.28" y2="64.6679" gradientUnits="userSpaceOnUse">
<stop offset="0.182292" stop-color="#D1D1D1"/>
<stop offset="1" stop-color="#CFCFCF"/>
</linearGradient>
<linearGradient id="paint5_linear_1089_10" x1="-224.625" y1="392.859" x2="302.28" y2="64.6679" gradientUnits="userSpaceOnUse">
<stop offset="0.182292" stop-color="#D1D1D1"/>
<stop offset="1" stop-color="#CFCFCF"/>
</linearGradient>
</defs>
</svg>
